<?xml version="1.0" encoding="UTF-8"?>
<svg width="88px" height="87px" viewBox="0 0 88 87" version="1.1" xmlns="http://www.w3.org/2000/svg" xmlns:xlink="http://www.w3.org/1999/xlink">
    <title>Group 2</title>
    <g id="Home" stroke="none" stroke-width="1" fill="none" fill-rule="evenodd">
        <g id="22---Contact" transform="translate(-820.000000, -420.000000)" fill="#370E51" fill-rule="nonzero">
            <g id="Group-2" transform="translate(820.000000, 420.000000)">
                <path d="M77.2857758,43.9034413 C76.1473375,44.6940743 75.298399,45.6665529 74.3125349,46.5362492 C73.3266708,47.4059455 72.2195297,48.2479697 71.2101927,49.1571976 C69.1015389,51.05867 66.9850608,52.9561892 64.802076,54.8576616 C62.8459964,56.569382 60.7256061,58.4906202 58.6912834,60.2616381 C57.576318,61.2341167 56.4026702,61.9496396 55.3190022,62.9695561 C54.8808403,63.3846384 54.5600433,63.8945967 54.1453544,64.2187563 C53.5154968,64.7129019 52.8426054,65.0884526 52.2440451,65.6458488 C50.1393034,67.6224313 48.136278,69.3776366 46.0041512,71.2593431 C43.9893892,73.0382674 42.0724313,75.1294917 39.8698857,76.6870387 C38.7552597,77.4741853 37.708308,78.3549082 36.7401583,79.3198465 C35.6643146,80.3951074 34.6236802,81.1699278 33.5008906,82.1977507 C33.0040463,82.6484115 32.5737088,83.0951191 32.0886011,83.4706698 C31.8264864,83.6722812 31.5526353,83.8659863 31.3061693,84.051785 C31.0597032,84.2375838 30.1794674,84.7396358 30.8523588,84.4668674 C30.6997846,84.530118 29.9760352,84.7119636 30.0425419,84.7040573 C29.7530421,84.7277763 28.7632658,84.4471015 29.4791909,84.7040573 C28.8511711,84.450578 28.2704059,84.0909804 27.7617531,83.6406559 C26.8619565,82.7551469 26.0717003,81.4031645 25.179728,80.3951074 C24.1977761,79.2842681 23.1727904,78.323649 22.2808181,77.1969969 C20.5125222,74.9555524 18.5799155,73.0659395 16.8781263,70.871933 C13.4471627,66.4285755 9.09292959,62.5940054 5.8732226,58.032053 C5.48200669,57.4746568 4.92648009,57.1425909 4.52743985,56.7235554 C4.01583963,56.0867513 3.54540471,55.4172777 3.11906256,54.7193008 C2.7621777,54.2716261 2.46735532,53.7768784 2.2427389,53.2487234 C2.03930663,52.7822499 2.18014436,53.8496045 2.18796868,53.3435994 C2.19634458,53.1306704 2.2305044,52.9195803 2.28968481,52.7150461 C2.3737823,52.3902296 2.4769859,52.0707732 2.59874539,51.7583802 C2.87259653,51.1258738 2.59874539,51.7228017 2.540063,51.801865 C2.68010434,51.651866 2.82904114,51.5106092 2.98604914,51.3788764 C3.2012179,51.1812181 3.37726506,50.9835599 3.56896086,50.7582294 C4.08726838,50.2317022 4.64297164,49.7441639 5.2316285,49.2995116 C6.31920874,48.4021431 7.33245797,47.5917443 8.36135582,46.6390315 C9.39025368,45.6863188 10.4895704,44.7375592 11.4910831,43.6622983 C12.3321974,42.7609767 13.6427707,41.9980158 14.5738646,40.9978651 C15.5049584,39.9977143 16.5925387,39.2189408 17.6175244,38.2820407 C18.7051046,37.2937495 19.8278943,36.3331304 20.9115624,35.4476214 C25.1758159,31.9806957 29.0175562,27.8733573 33.4304717,24.3787594 C37.7338468,20.990897 41.6773032,16.8677459 46.0002391,13.5826658 C47.0213126,12.7920328 47.8585147,11.7958352 48.7974329,10.9221858 L47.2051841,10.9221858 C50.9960663,15.6185458 54.9747322,19.7416969 58.855594,24.4024784 C60.7842885,26.7190331 62.5251993,29.1462764 64.5556099,31.3047045 C66.5860205,33.4631326 68.3817016,35.8271253 70.4238487,38.0804293 C71.5583748,39.3335826 72.7359347,40.5630169 73.8391636,41.8438424 C74.9423925,43.1246678 75.7952432,44.4726971 77.0588706,45.6705061 C78.1151536,46.67461 79.7113145,45.0656719 78.6511194,44.0615679 C76.6559182,42.1640487 74.8015548,39.5510067 72.8141779,37.3728128 C70.8268011,35.1946189 69.128924,32.6606401 67.0007094,30.54965 C64.9323961,28.4083385 62.9936672,26.143022 61.1950652,23.7660189 C59.3563504,21.421792 57.0990346,19.2515044 55.2837927,17.0100599 C53.2064362,14.4523621 50.9295596,11.9658213 48.8052572,9.33301345 C48.4140413,8.84282099 47.6316094,8.93769695 47.2130084,9.33301345 C45.088706,11.309596 43.0504711,13.2071152 40.836189,14.9425546 C38.6186874,16.6794295 36.5013568,18.5430985 34.494579,20.5244236 C32.5111143,22.5010061 30.1912039,24.1218037 28.1255839,26.1023394 C26.0599638,28.082875 23.8222088,30.0120195 21.615751,31.771178 C19.4092933,33.5303364 17.312376,35.4713404 15.2389316,37.4597824 C14.8477157,37.8550989 14.2530675,38.1515863 13.7679598,38.5706218 C13.2163453,39.0489547 12.715589,39.8079624 12.250042,40.2349042 C11.6984276,40.7409093 10.9746781,41.0650689 10.3995907,41.5513082 C9.82450335,42.0375475 9.46067255,42.6186627 8.94426754,43.1325742 C6.95297853,45.0735782 4.43354803,46.6469379 2.41487391,48.6116609 C1.41336116,49.5920458 0.490091603,50.5882434 0.13408512,51.9639448 C-0.257130795,53.4977728 0.247537736,54.5848932 1.1316857,55.8143275 C1.55811105,56.4073022 1.96106345,57.000277 2.39140095,57.6051112 C2.82173846,58.2099455 3.44377177,58.5894493 3.83107552,59.0401101 C4.83258827,60.2062938 5.58372282,61.4120091 6.63609364,62.5465675 C7.6258699,63.6060157 8.56870026,64.7168551 9.48805766,65.8395539 C10.4074151,66.9622528 11.4206643,67.903106 12.2930758,68.8874441 C14.2765405,71.1249355 16.0213634,73.4652092 17.903112,75.6710753 C19.8318065,77.940192 21.8152712,79.9879314 23.7713507,82.2491418 C25.4809643,84.2257243 27.0614766,87.1629259 30.0738391,86.9929398 C31.5252502,86.902017 32.6558642,85.9374448 33.6808499,85.1151864 C34.7997274,84.2138648 35.8560104,83.3164964 36.9162055,82.3993621 C37.9764006,81.4822278 38.9387918,80.3041846 40.0459328,79.3633314 C41.0787428,78.4896819 42.2758635,77.5765008 43.3712681,76.6396007 C45.4564489,74.8567233 47.6237851,72.765499 49.8263307,71.0182001 C50.9088838,70.1248482 51.9431828,69.1734012 52.9247608,68.1679681 C53.9693073,67.1401452 55.2094617,66.4760135 56.1483799,65.4205184 C57.9636218,63.3767321 60.451755,61.649199 62.5760574,59.8149305 C66.8794325,56.1029085 70.9715509,51.9402258 75.4353245,48.5009722 C76.5815872,47.6194164 77.2740393,46.6390315 78.396829,45.8721175 C79.6213348,45.0538124 78.494633,43.0772299 77.2857758,43.9034413 Z" id="Path"></path>
                <path d="M17.7507548,59.1803549 C15.8264079,58.1533877 14.7853062,57.1648837 13.3909064,55.4725032 C12.7247904,54.7274637 12.3086694,53.7841363 12.2032235,52.7800798 C12.2032235,52.7570019 12.4249745,51.1992426 12.1506047,51.9531211 C12.3723556,51.3454027 12.6880688,51.1838573 12.988748,50.7261453 C13.142846,50.4992125 13.7404459,50.1838143 13.0488838,50.5261367 C13.3085375,50.4102035 13.5793856,50.3225381 13.8569591,50.264587 C14.2130465,50.1969061 14.5736492,50.1570458 14.9356458,50.1453511 C15.9090947,50.2684333 16.6420002,50.6761432 17.5665888,51.2030889 C18.2788677,51.6955722 18.8893471,52.3268523 19.363147,53.0608611 C18.8068905,52.2415951 19.4871771,53.2262528 19.363147,53.3108718 C19.4796602,53.7724301 19.539796,53.637809 19.539796,52.9262399 L19.4044904,53.1916359 C19.0286414,53.4993415 18.8219244,54.0185946 18.3709056,54.4224581 L19.4345583,54.1339841 C18.8975939,54.0800713 18.3898092,53.8585148 17.9800227,53.4993415 C18.8783018,54.1724473 18.1679472,53.9724387 18.2243245,53.4185688 C18.2506339,53.180097 18.1754641,52.9531641 18.1792226,52.5762249 C18.144593,52.0719753 18.182584,51.565255 18.2919773,51.072314 C18.0251245,51.8877337 18.6490339,50.7646085 18.7580301,50.6107557 C18.8670263,50.456903 18.9760225,50.3145892 19.0775017,50.1645827 C19.178981,50.0145763 19.7953733,49.3953189 19.2503923,49.8645698 C19.4898809,49.6632577 19.7508803,49.4903533 20.0283997,49.349163 C20.5173344,49.2104983 21.0253801,49.155907 21.5317957,49.1876176 C22.5578635,49.2299271 23.3133199,49.8107213 24.1289123,50.6146021 C25.1399461,51.6107987 26.680927,50.0338079 25.6698932,49.0376112 C23.0126407,46.4144215 19.2165659,46.1144086 16.9389209,49.3760873 C15.9454257,50.8149534 15.6672648,52.6467471 16.1872229,54.3263001 C16.7209285,55.9956026 18.8181659,56.8994876 20.2088072,55.7378992 C23.497486,52.9647031 19.7202035,49.5837885 16.9840228,48.4991265 C13.8043403,47.2336875 9.68127676,48.7260593 10.0195409,52.8146966 C10.327737,56.5494726 13.7780308,59.7380712 16.9990568,60.9419691 C17.9950566,61.3266011 18.6527924,59.6919154 17.7206868,59.1918939 L17.7507548,59.1803549 Z" id="Path"></path>
                <path d="M25.7987982,61.6950781 C27.6181372,59.8931593 29.1988102,58.0001091 30.9085976,56.0904895 C31.691109,55.2371671 32.5205711,54.3299942 33.3617708,53.5470916 C34.2029706,52.764189 35.2163228,52.1718341 36.018397,51.3433657 C36.8190379,50.4622306 37.7146229,49.683664 38.6867609,49.0236542 C39.692288,48.4064453 40.5256626,47.4537067 41.3942503,46.7950743 C41.926358,46.3808401 42.4858537,46.0908762 43.0453493,45.7429195 C43.604845,45.3949628 43.9530625,44.8895971 44.4695201,44.5002169 C45.3772333,43.8001611 46.4257985,43.0214009 47.4117629,42.3130604 L46.0188926,40.3992985 L45.3576705,41.0247921 C44.2660671,42.0728046 45.8467401,43.6634639 46.9500812,42.7148676 L47.6465163,42.114228 C48.6481309,41.2484785 47.3100364,39.388567 46.253646,40.200466 C45.1972557,41.0123651 44.2269415,41.774556 43.197939,42.5201775 C42.7088694,42.8722766 42.3489142,43.385927 41.9107078,43.6841756 C41.3668624,44.052844 40.7995416,44.3428079 40.2635213,44.7487574 C39.1993058,45.5565141 38.3385433,46.4346906 37.289978,47.1471734 C36.3647542,47.8080407 35.5025292,48.5627486 34.7155155,49.4006074 C33.0722416,51.1113946 31.0220618,52.6109223 29.3787878,54.4666915 C27.7355139,56.3224606 26.0883274,58.3273541 24.3198517,60.1251305 C23.345625,61.1151502 24.8167464,62.6643861 25.7987982,61.6909357 L25.7987982,61.6950781 Z" id="Path"></path>
                <path d="M28.6287038,64.8412302 C32.2085997,62.6169559 35.0994267,59.4953675 38.3572135,56.9326993 C39.9514495,55.6817826 41.4233657,54.1228895 43.0135244,52.9137968 C44.7382351,51.5944409 46.4384817,50.3625351 47.7962327,48.6933788 C48.6116987,47.6934059 46.7728228,46.3626435 45.9206608,47.3436055 C44.5466006,48.9291139 42.8830499,50.1077892 41.2806591,51.3777167 C39.6782684,52.6476443 38.2756669,54.1190873 36.6977401,55.3852127 C33.5337319,57.9199983 30.4077789,60.5384317 27.3198809,63.2405131 C26.4187909,64.0009488 27.6012166,65.4876005 28.6450131,64.8412302 L28.6287038,64.8412302 Z" id="Path"></path>
                <path d="M31.5381571,68.8319388 C33.431917,67.4931193 35.1606434,65.8420386 37.0337741,64.5578648 C38.9976732,63.2112388 40.5036043,61.5523516 42.4468742,60.1901125 C43.907421,59.1713606 42.145688,57.1728895 40.9615723,58.3711915 C40.1421544,59.2003917 39.2429731,59.9556749 38.2756515,60.6272781 C37.2978277,61.322059 36.5675543,62.2471326 35.6103598,62.918494 C33.7372291,64.2338939 32.0580128,65.861555 30.3004056,67.3174724 C29.4422312,68.0278664 30.6015918,69.4954936 31.5381571,68.8319388 L31.5381571,68.8319388 Z" id="Path"></path>
                <path d="M52.8282245,14.7054139 C54.9717647,12.8679948 56.2149355,10.2337161 57.9000307,8.06749566 C58.7260577,7.00372671 59.7296806,5.97477202 60.5309269,4.76400955 C61.2867416,3.60353433 62.3936179,2.72930967 62.9346656,1.39863143 C63.3476792,0.396754491 61.695625,-0.508416177 60.9769815,0.330994228 C57.5035377,4.34237022 54.9552442,9.30533589 51.3124648,13.2896341 C50.8950399,13.6816591 50.8959645,14.3163912 51.31453,14.707348 C51.7330954,15.0983047 52.4107995,15.0974388 52.8282245,14.7054139 Z" id="Path"></path>
                <path d="M63.2984526,3.69955424 C64.8577352,5.02165635 66.5105747,6.30441019 68.1361268,7.5556854 C69.7616789,8.80696062 71.2546919,10.2274334 72.8919386,11.4905131 C74.4512212,12.6709614 76.166432,13.8514098 77.6789361,15.079076 C78.489763,15.7401271 79.359063,16.3775692 80.1465007,17.0464899 C80.9339384,17.7154106 81.510873,18.5181154 82.6023708,18.9312723 C83.6938686,19.3444293 84.4618152,17.7901723 83.682174,17.0582943 C80.793603,14.3393284 77.1799657,12.0059756 74.0107239,9.58212168 C72.4280521,8.3780644 70.9467336,7.02054883 69.3640618,5.851905 C67.7229169,4.63604323 66.0739756,3.40837698 64.4523217,2.16497142 C63.5986145,1.5078552 62.4642365,2.97948076 63.2828598,3.67594527 L63.2984526,3.69955424 Z" id="Path"></path>
                <path d="M71.5762058,36.7277866 C73.9274839,33.9908899 76.0815331,31.1425185 78.1505032,28.20958 C80.2194732,25.2766416 82.7099718,22.61278 84.8060125,19.5914306 C85.6103971,18.4382438 83.7038508,17.3350284 82.9072007,18.4882152 C80.8420979,21.478813 78.4676163,24.0388877 76.4295841,26.9948899 C74.3915519,29.9508921 72.2181666,32.7377602 70.1453293,35.639947 C69.5575097,36.4663976 70.8994399,37.5004218 71.5607368,36.7277866 L71.5762058,36.7277866 Z" id="Path"></path>
                <path d="M80.1496539,23.4594276 C82.1559731,26.317364 83.9690053,29.6009506 85.9482643,32.4507794 C86.1717323,32.8277434 86.5802669,33.0385258 87.00142,32.9941525 C87.4225732,32.9497792 87.7829547,32.6579826 87.9304425,32.2419341 C88.0779303,31.8258856 87.9868232,31.3580858 87.6955788,31.0359995 C85.6080791,28.4456146 83.9767367,25.1214899 81.6109037,22.2838225 C80.9305335,21.4730604 79.5311355,22.5675893 80.1573854,23.4594276 L80.1496539,23.4594276 Z" id="Path"></path>
                <path d="M76.5466293,41.7508098 C77.4428549,40.9219331 78.4725609,40.3357455 79.4298061,39.5703414 C80.238316,38.9206813 81.1764926,38.3718305 82.0498359,37.796844 C83.8956792,36.5721974 85.680503,35.2691435 87.5149052,34.0220948 C88.659023,33.2492233 87.5682974,31.4085197 86.4203658,32.1888585 C84.4868068,33.5068471 82.6066399,34.914444 80.6997769,36.262302 C78.7929139,37.6101601 76.8631685,38.9132139 75.2652174,40.5000274 C74.44908,41.3139694 75.6999821,42.5274149 76.5428156,41.7508098 L76.5466293,41.7508098 Z" id="Path"></path>
                <path d="M61.2706272,9.67178315 C62.9879875,11.6902702 65.311705,13.262043 67.4280875,14.7841808 C69.5444699,16.3063186 71.5395809,18.1841733 73.6246675,19.838671 C74.4383599,20.4880613 75.518067,19.0114222 74.7200226,18.3413506 C72.7170876,16.6372181 70.7128487,14.9399793 68.7073057,13.2496342 C66.7004587,11.5661829 64.5097486,10.0481814 62.5772293,8.28614141 C62.3438273,8.03935922 62.0036365,7.9429798 61.6848035,8.03330835 C61.3659704,8.1236369 61.1169335,8.38695036 61.0315024,8.7240611 C60.9460714,9.06117184 61.0372252,9.42086472 61.2706272,9.66764691 L61.2706272,9.67178315 Z" id="Path"></path>
                <path d="M60.19872,13.5880816 C60.7428203,14.2686796 61.3754457,14.8686141 62.0786899,15.3709039 C62.947236,16.0142703 63.3871489,16.3785861 64.2030559,17.052958 C65.5190348,18.1381542 67.2110077,18.9908084 68.6698643,19.8550896 C69.7113677,20.4790774 70.5197547,18.9287972 69.5948095,18.2234196 C68.3089101,17.2467431 66.5266986,16.2855693 65.4588757,15.4174124 C64.0488983,14.2547021 62.6727604,13.1462518 61.2627829,12.1656995 C60.3603974,11.537836 59.6384889,12.8439471 60.19496,13.5880816 L60.19872,13.5880816 Z" id="Path"></path>
                <path d="M78.9156325,31.6981016 C78.6071378,30.9376991 78.2520865,30.203201 77.8531315,29.5000954 C77.6035078,29.0898009 77.2834774,28.7381199 77.0242528,28.3351521 C77.2610753,28.7014865 76.9538461,28.1556483 76.8930403,28.0457479 C76.78423,27.844264 76.6722193,27.6464435 76.5570084,27.4486229 C75.9681524,26.42655 74.5984222,27.3240692 75.1136712,28.4120823 C75.5221772,29.2036921 75.9833168,29.9581278 76.4930023,30.668702 C76.2465789,30.3023676 76.6082132,30.9251361 76.6626184,31.0350364 L76.9602467,31.5662212 C77.1618658,31.9325556 77.3890874,32.2659198 77.6003075,32.5956208 C77.8186426,32.9909442 78.2713066,33.1172518 78.624076,32.8812844 C78.9768453,32.6453171 79.1029283,32.1318859 78.9092319,31.7200816 L78.9156325,31.6981016 Z" id="Path"></path>
                <path d="M75.8673149,33.5872653 C76.0055807,33.9340194 75.8673149,33.5673369 75.7964094,33.3959527 C75.7255038,33.2245685 75.6794152,33.1607977 75.6156002,33.045213 L75.3284328,32.523089 C75.1334425,32.176335 74.934907,31.8335666 74.7221904,31.5027552 C74.4526536,31.021657 73.8967202,30.8592986 73.4529811,31.1320871 C73.0176336,31.4270464 72.871264,32.0587136 73.1232704,32.5549745 C73.3147153,32.9017285 73.5238867,33.2405112 73.7401486,33.5713226 L74.0946763,34.0974322 C74.2035749,34.2690551 74.3219854,34.4327924 74.449204,34.5876707 C74.537836,34.6873127 74.8604562,35.0619665 74.5803793,34.7271694 C74.8775696,35.0597546 75.3483213,35.0921912 75.6794152,34.8028973 C76.0029548,34.5094227 76.0939264,33.9980613 75.8956771,33.5872653 L75.8673149,33.5872653 Z" id="Path"></path>
            </g>
        </g>
    </g>
</svg>