<svg xmlns="http://www.w3.org/2000/svg" width="105" height="84" viewBox="0 0 105 84">
    <g fill="none" fill-rule="evenodd">
        <g fill="#370E51">
            <g>
                <g>
                    <path d="M84.48 76.778c-3.772.926-5.428.668-9.237-.051-3.22-.608-6.238-2.117-9.503-2.482-2.337-.261-4.6.13-6.9.521-3.902.666-7.783 1.03-11.741 1.014-12.316-.05-25.034-3.983-34.139-12.52C4.542 55.367 1.124 43.505 2.832 32.19c1.5-9.937 8.015-17.704 16.542-22.585C36.488-.19 59.476.781 77.376 7.86c8.609 3.405 16.532 9.082 21.074 17.313 4.894 8.867 5.299 20.86-.267 29.486C93.979 61.17 86.475 64.51 79.148 66c-1.501.305-.865 2.6.631 2.296 9.454-1.923 18.272-6.903 22.394-15.998 3.954-8.725 2.844-19.465-1.42-27.855C92.283 7.784 71.394 1.611 54.144.374 35.953-.93 13.485 4.259 3.959 21.471-.944 30.33-1.025 41.763 2.245 51.184c3.465 9.983 11.683 17.434 21.049 21.834 9.764 4.587 21.005 5.911 31.653 4.726 2.5-.279 4.957-.833 7.452-1.134 2.488-.3 4.802.254 7.156 1.024 5.816 1.9 11.6 2.606 17.6 1.134.844-.207 1.18-1.392.523-1.99-2.978-2.712-10.45-10.174-9.904-8.736-2.531 1.19 6.53 9.4 6.705 8.736z" transform="translate(-1106 -460) translate(1106 460) translate(0 .5)"/>
                </g>
                <path d="M1.004 46.649c-.134 8.125 2.747 15.57 8.394 21.406 5.531 5.716 13.076 9.23 20.596 11.458 8.251 2.445 17.091 3.439 25.625 2.28 3.265-.445 6.482-.959 9.786-.72 2.959.215 5.909 1.41 8.817 1.985 2.445.483 4.988.688 7.409-.003 2.36-.674 4.095-2.822 5.956-4.285 1.202-.945-.487-2.614-1.675-1.68-1.816 1.427-3.312 3.218-5.599 3.87-2.67.762-5.949-.244-8.548-.883-2.391-.588-4.711-1.26-7.178-1.438-2.624-.19-5.293.253-7.884.618-8.465 1.192-16.735.487-24.986-1.727-7.261-1.947-14.351-5.228-19.885-10.41-5.73-5.366-8.587-12.658-8.458-20.471.025-1.533-2.344-1.53-2.37 0M29.72 39.344c-1.315 1.243-.706 3.002.837 3.803 1.401.728 3.409.3 4.15-1.004.797-1.404.193-2.42-.322-2.775-1.396-.96-3.333-1.282-4.664-.024zM39.72 39.344c-1.315 1.243-.706 3.002.837 3.803 1.401.728 3.409.3 4.15-1.004.797-1.404.193-2.42-.322-2.775-1.396-.96-3.333-1.282-4.664-.024zM49.72 39.344c-1.315 1.243-.706 3.002.837 3.803 1.401.728 3.409.3 4.15-1.004.797-1.404.193-2.42-.322-2.775-1.396-.96-3.333-1.282-4.664-.024zM59.72 39.344c-1.315 1.243-.706 3.002.837 3.803 1.401.728 3.409.3 4.15-1.004.797-1.404.193-2.42-.322-2.775-1.396-.96-3.333-1.282-4.664-.024z" transform="translate(-1106 -460) translate(1106 460)"/>
            </g>
        </g>
    </g>
</svg>
