<?xml version="1.0" encoding="UTF-8"?>
<svg width="72px" height="72px" viewBox="0 0 72 72" version="1.1" xmlns="http://www.w3.org/2000/svg" xmlns:xlink="http://www.w3.org/1999/xlink">
    <title>Shape</title>
    <g id="Home" stroke="none" stroke-width="1" fill="none" fill-rule="evenodd">
        <g id="22---Contact" transform="translate(-247.000000, -417.000000)" fill="#370E51" fill-rule="nonzero">
            <g id="Group-5" transform="translate(152.000000, 417.000000)">
                <g id="np_hand-drawn-email_1747294_000000" transform="translate(95.000000, 0.000000)">
                    <path d="M71.699,59.801 C71.80056,49.199 71.09744,38.699 69.5974,28.199 C69.49584,27.39822 68.79662,27.199 68.199,27.39822 C67.59744,26.19902 66.4998,24.99982 65.8982,24.19902 C64.3982,22.30062 62.7966,20.59742 60.7966,19.19902 C60.99582,16.69902 61.09738,13.89822 60.2966,12.30062 C59.195,9.80062 58.7966,10.10142 55.695,9.99982 C52.195,9.89826 48.7966,9.8006 45.297,9.60138 C43.3986,6.10138 39.8986,3.20298 36.797,0.70298 C36.297,0.30454 35.6954,0.30454 35.1954,0.70298 C31.8946,3.70298 27.797,5.90218 24.2974,8.70298 C24.19584,8.80454 24.19584,8.9022 24.09818,9.00376 C19.99658,8.9022 15.99658,8.9022 11.89918,9.00376 C11.50074,9.00376 11.29762,9.20298 11.0984,9.4022 C10.79762,9.50376 10.49684,9.80064 10.49684,10.30064 C10.39528,13.10144 10.39528,15.99984 10.49684,18.80064 C10.39528,18.80064 10.19606,18.9022 10.0984,18.9022 C8.0984,20.203 6.2976,21.9022 4.5984,23.703 C3.89918,24.50378 2.0984,25.9022 1.7,27.3046 C1.2,27.3046 0.7,27.60538 0.7,28.3046 C1.30156,41.6996 1.39922,54.8986 1.00078,67.9996 C0.7,68.39804 0.50078,68.80038 0.30156,69.3004 C0.00078,69.90196 0.80156,70.8004 1.40316,70.10118 C1.50472,69.90196 1.70394,69.8004 1.8016,69.60118 C1.90316,69.70274 2.10238,69.70274 2.20004,69.70274 C13.30204,69.3043 24.50104,69.20274 35.59804,69.50352 C40.39884,69.60508 45.09804,69.90196 49.89904,70.10508 C55.19984,70.40586 61.20004,71.70668 66.59804,71.40588 C72.89884,71.10119 71.60194,65.10118 71.69964,59.80088 L71.699,59.801 Z M63.1013,24.399 C63.70286,25.09822 64.2029,25.899 64.8005,26.5982 C65.10128,26.99664 65.40206,27.49664 65.60128,27.899 C65.70284,28.09822 65.8005,28.29744 65.90206,28.399 C66.00362,28.59822 66.10128,28.69978 66.20284,28.79744 C64.20284,29.399 62.50364,30.49664 60.90204,31.79744 C60.90204,28.79744 60.80048,25.89904 60.70282,22.89904 L60.70282,21.69984 C61.4997,22.60218 62.30052,23.50064 63.10122,24.39904 L63.1013,24.399 Z M35.8983,3.001 C38.1991,5.1026 40.1991,7.501 42.4999,9.6026 C37.1015,9.40338 31.8009,9.20416 26.3979,9.20416 C29.6987,7.30186 32.6987,4.89946 35.8979,3.001 L35.8983,3.001 Z M44.8006,12.1026 C47.4998,12.20416 50.699,11.80182 53.3006,12.30182 C56.8006,13.1026 57.199,13.20026 57.9998,17.00102 C59.1014,22.10262 58.30058,28.60302 58.4998,33.80202 L58.4998,33.90358 C58.10136,34.20436 57.80058,34.6028 57.3982,34.90358 C53.8982,38.20438 50.4998,41.50518 47.0002,44.80198 C46.0002,44.0012 45.0002,43.40358 43.8986,43.00118 C44.29704,42.39962 44.00016,41.20038 43.09782,41.30198 C39.89862,41.5012 36.79702,42.10276 33.59782,42.20042 C31.29702,42.30198 28.89862,41.80198 26.79702,42.80198 C26.79702,42.80198 26.69546,42.80198 26.69546,42.90354 C26.5939,42.90354 26.5939,42.90354 26.49624,43.0051 C26.39468,43.0051 26.39468,43.10666 26.39468,43.20432 C25.69546,43.90354 24.99628,44.70432 24.29308,45.40352 C19.19148,43.50512 16.39468,40.10272 12.79308,36.20432 C12.69152,36.10276 12.4923,35.90354 12.39464,35.80588 L12.4962,35.70432 C14.1954,33.80592 13.09776,29.10272 12.9962,26.80592 C12.89464,21.50512 12.79698,16.30592 12.39464,11.00492 C23.30064,11.8018 34.10164,11.89945 44.80064,12.10262 L44.8006,12.1026 Z M6.1016,25.6026 C7.5,24.2042 9,22.9034 10.6016,21.7042 L10.6016,23.2042 C10.6016,25.005 10.70316,26.8058 10.70316,28.7042 C10.70316,29.9034 10.80472,31.1026 10.80472,32.3058 C10.6055,33.00502 10.50394,33.505 10.70316,33.8058 C10.6016,33.8058 10.6016,33.90736 10.6016,34.00502 C8.3008,32.00502 5.7032,30.20422 3.1016,28.60662 C4.3008,28.00115 5.3008,26.39962 6.1016,25.60272 L6.1016,25.6026 Z M3.6016,47.3016 C3.50004,42.0008 3.40238,36.6996 3.1016,31.3016 C7.2032,34.3016 10.7032,37.5008 14.1016,41.3016 C16.5,44.0008 19.3008,45.9032 22.6016,47.2 C19.4024,50.7 16.1016,54.2 12.8008,57.501 C10,60.3018 6.1016,62.3994 3.3008,65.2002 C3.3008,64.80176 3.40236,64.30176 3.60158,63.7002 C2.8008,58.7002 3.699237,52.6022 3.60158,47.3022 L3.6016,47.3016 Z M52.3006,67.8996 C46.3006,67.50116 40.4026,67.20038 34.4026,67.09882 C28.4026,66.99726 22.5046,66.8996 16.5046,66.99726 C14.1062,66.99726 11.7038,67.09882 9.3054,67.09882 C7.7038,67.09882 6.1062,67.20038 4.5046,67.20038 C4.40304,67.20038 4.30538,67.09882 4.30538,67.00116 C7.90698,63.80196 12.20378,61.20036 15.60638,57.70036 C18.00478,55.30196 20.30558,52.80196 22.70798,50.30196 C24.40718,48.50116 27.00878,46.60276 28.10638,44.40356 L28.10638,44.20434 C30.00478,44.8059 32.30558,44.50512 34.30558,44.40356 C37.20398,44.302 40.10638,44.10278 42.90718,43.50512 C44.20798,46.60672 47.30558,48.70432 49.50878,51.30592 C52.11038,54.30592 54.50878,57.50512 57.00878,60.60672 C58.00878,61.80592 61.30958,66.60672 64.40718,69.00512 C60.39938,69.302 54.89938,68.10278 52.30218,67.89962 L52.3006,67.8996 Z M68.9996,67.10272 C68.80038,67.50116 68.4996,67.70428 68.19882,68.00116 C67.89804,67.8996 67.59726,67.8996 67.39804,68.00116 C67.29648,68.00116 67.29648,68.10272 67.19882,68.10272 L66.9996,68.30194 C65.898,66.70034 63.6012,64.20034 63.398,64.00114 C62.398,63.00114 61.4996,61.89954 60.5972,60.80194 C58.5972,58.40354 56.5972,56.00114 54.6988,53.50114 C53.0972,51.50114 51.1988,48.70034 49.0972,46.39954 C54.898,40.70034 60.3982,34.89954 66.9952,30.09854 C67.09676,30.09854 67.09676,30.2001 67.09676,30.2001 C67.19832,30.2001 67.19832,30.2001 67.29598,30.30166 L67.59676,30.30166 C68.4952,36.90326 69.09676,43.40366 69.29596,50.00066 C69.39752,52.39906 69.39752,54.80146 69.39752,57.19986 C69.299863,59.60216 70.10064,65.19986 68.99908,67.10216 L68.9996,67.10272 Z" id="Shape"></path>
                </g>
            </g>
        </g>
    </g>
</svg>